PathFileType	4	(X/Y/Z)	/Users/itak/Documents/Research/Walk-IL/dataset/trc/00230_00009.trc
DataRate	CameraRate	NumFrames	NumMarkers	Units	OrigDataRate	OrigDataStartFrame	OrigNumFrames
100.000000	100.000000	4	53	mm	100.000000	598	798
Frame#	Time	RPSI			LPSI			L3			STRN			T10			C7			CLAV			RBAK			LBAK			LSHO			LUPA			LAEL			LAOL			LWTS			LWPS			LFRA			LIFD			LHPS			LHTS			RSHO			RUPA			RAEL			RAOL			RWTS			RWPS			RFRA			RIFD			RHTS			RHPS			RBHD			LFHD			RFHD			LBHD			LHIP			RHIP			RASI			LASI			LKNE			LTHI			LANK			LTIP			LTOE			LMT1			LMT5			LHEE			RKNE			RTHI			RANK			RTIP			RTOE			RMT1			RMT5			RHEE			
		X1	Y1	Z1	X2	Y2	Z2	X3	Y3	Z3	X4	Y4	Z4	X5	Y5	Z5	X6	Y6	Z6	X7	Y7	Z7	X8	Y8	Z8	X9	Y9	Z9	X10	Y10	Z10	X11	Y11	Z11	X12	Y12	Z12	X13	Y13	Z13	X14	Y14	Z14	X15	Y15	Z15	X16	Y16	Z16	X17	Y17	Z17	X18	Y18	Z18	X19	Y19	Z19	X20	Y20	Z20	X21	Y21	Z21	X22	Y22	Z22	X23	Y23	Z23	X24	Y24	Z24	X25	Y25	Z25	X26	Y26	Z26	X27	Y27	Z27	X28	Y28	Z28	X29	Y29	Z29	X30	Y30	Z30	X31	Y31	Z31	X32	Y32	Z32	X33	Y33	Z33	X34	Y34	Z34	X35	Y35	Z35	X36	Y36	Z36	X37	Y37	Z37	X38	Y38	Z38	X39	Y39	Z39	X40	Y40	Z40	X41	Y41	Z41	X42	Y42	Z42	X43	Y43	Z43	X44	Y44	Z44	X45	Y45	Z45	X46	Y46	Z46	X47	Y47	Z47	X48	Y48	Z48	X49	Y49	Z49	X50	Y50	Z50	X51	Y51	Z51	X52	Y52	Z52	X53	Y53	Z53	

599	5.98	-400.6320190429688	1046.986572265625	70.49845123291016	-287.2565307617188	1047.895385742188	29.44155311584473	-334.7994689941406	1130.125610351562	40.18301773071289	-245.8553619384766	1308.63037109375	275.6861267089844	-346.41455078125	1258.283935546875	43.17963790893555	-325.5840454101562	1518.2294921875	111.3109741210938	-261.8088989257812	1425.939086914062	256.9527282714844	-419.320556640625	1377.740356445312	61.35786056518555	-232.0165252685547	1485.580200195312	46.80019760131836	-144.8343353271484	1485.036499023438	106.3920974731445	-86.25520324707031	1371.52392578125	37.42832565307617	-54.1494026184082	1164.143432617188	16.87643814086914	-129.9803924560547	1146.67578125	-23.53937530517578	-48.69236373901367	943.8697509765625	143.0097045898438	5.763241291046143	921.1160278320312	81.96425628662109	-28.16745567321777	1059.157592773438	35.14776992797852	-36.17497634887695	749.68798828125	162.9636383056641	11.42642116546631	835.114501953125	107.862907409668	-12.32998085021973	845.5084838867188	171.0619201660156	-457.7447204589844	1465.43017578125	226.1261596679688	-525.7984619140625	1400.037109375	231.3819732666016	-578.1879272460938	1122.855712890625	222.1766510009766	-509.1203002929688	1113.224487304688	157.1720428466797	-495.0523071289062	908.5281982421875	336.1752319335938	-574.6757202148438	895.7135620117188	310.6492919921875	-582.5193481445312	1054.877563476562	251.4859161376953	-490.8960571289062	716.2665405273438	355.4498596191406	-499.611328125	790.2349243164062	383.8721313476562	-564.4244995117188	790.0885009765625	351.9876098632812	-352.4160766601562	1682.584228515625	207.5104370117188	-170.250732421875	1679.079467773438	343.698974609375	-258.5123291015625	1674.8046875	390.7937927246094	-213.3092956542969	1683.182983398438	184.4990844726562	-122.0440216064453	980.6506958007812	71.82415771484375	-462.4625244140625	1011.267883300781	202.0724487304688	-396.5881652832031	1050.503295898438	277.0579223632812	-130.2205047607422	1026.996826171875	184.1593475341797	-115.6070785522461	496.6350708007812	156.5736389160156	-105.3095932006836	641.85693359375	135.0597534179688	-265.9178771972656	169.35791015625	-172.7695465087891	-179.4644165039062	342.1372985839844	-2.393563032150269	-244.5806732177734	50.49506378173828	5.718061447143555	-306.6745300292969	80.57009887695312	-32.94487762451172	-207.8401947021484	90.18740844726562	-89.70954132080078	-330.99169921875	212.7915954589844	-191.1905975341797	-393.0772399902344	529.1939086914062	294.5882568359375	-444.1307983398438	793.5577392578125	283.1942749023438	-402.8261108398438	26.37672233581543	235.8653717041016	-373.5351867675781	406.6017150878906	302.5964050292969	-250.7491455078125	54.3212890625	385.6162719726562	-244.5054168701172	54.56209182739258	315.7380676269531	-360.3232421875	31.99947357177734	341.2200317382812	-385.3827819824219	28.51349449157715	152.0247192382812	
600	5.99	-401.7874145507812	1047.403198242188	75.45102691650391	-288.945556640625	1048.370727539062	33.10612106323242	-336.45556640625	1130.927978515625	44.69787216186523	-244.9739074707031	1308.81005859375	279.5704345703125	-348.3985595703125	1259.10986328125	48.08217239379883	-326.8507995605469	1518.828002929688	116.832145690918	-261.1954345703125	1426.182739257812	261.3724670410156	-421.2825622558594	1378.4658203125	67.81132507324219	-234.2615051269531	1486.29443359375	50.95033645629883	-146.2469329833984	1485.71337890625	109.4170379638672	-88.43195343017578	1372.369995117188	39.57071685791016	-56.24604797363281	1165.084838867188	18.58603286743164	-132.5188751220703	1147.312255859375	-20.89598083496094	-48.77437210083008	946.517333984375	147.0124206542969	4.995948314666748	922.91748046875	85.55182647705078	-29.78807067871094	1060.378295898438	37.47988891601562	-34.52585983276367	752.9905395507812	170.7555999755859	11.64602756500244	837.516357421875	113.0500946044922	-11.20411014556885	849.0969848632812	176.3930358886719	-457.4800415039062	1465.7509765625	233.2476348876953	-525.422119140625	1400.399536132812	239.4170684814453	-578.142822265625	1123.246948242188	231.0547332763672	-510.1671752929688	1113.585693359375	164.9126586914062	-492.8747253417969	909.1746826171875	344.0390319824219	-572.9360961914062	896.2044677734375	319.8247985839844	-581.9268188476562	1055.268676757812	260.5320129394531	-488.1954956054688	716.9321899414062	363.5677795410156	-496.6362915039062	790.9953002929688	392.0255126953125	-561.834228515625	790.679931640625	361.2002258300781	-352.2169189453125	1683.05810546875	213.7554931640625	-168.5432434082031	1678.766357421875	347.8873596191406	-256.2576904296875	1674.529052734375	395.9439086914062	-213.3236694335938	1683.45068359375	189.2166137695312	-123.0095977783203	981.5977783203125	73.84098052978516	-462.8411254882812	1011.516845703125	207.3732604980469	-395.4760131835938	1050.651489257812	282.0010681152344	-130.3804779052734	1027.77197265625	186.2595367431641	-112.1132965087891	497.9795837402344	161.4345550537109	-103.0701217651367	643.187255859375	138.5117340087891	-269.1189270019531	168.4078521728516	-162.5231170654297	-179.1896820068359	342.57470703125	4.692097187042236	-241.6488494873047	52.03199005126953	16.64789009094238	-305.3004150390625	80.84389495849609	-20.47273063659668	-208.1670989990234	90.69119262695312	-80.20445251464844	-335.025634765625	211.1560211181641	-179.6587524414062	-393.3306579589844	528.9348754882812	296.7916564941406	-443.667236328125	793.48974609375	287.4618225097656	-403.122314453125	26.2596263885498	235.8851776123047	-373.9306030273438	406.3161010742188	304.1084289550781	-251.1489868164062	55.32229614257812	385.4242553710938	-244.7964019775391	55.55148315429688	315.4495239257812	-360.2150268554688	31.99193954467773	341.1624755859375	-385.728515625	28.43661499023438	152.0775146484375	
601	6	-402.8525390625	1047.830444335938	80.33631134033203	-290.5439453125	1048.83251953125	36.7218132019043	-337.9954833984375	1131.692138671875	49.17911529541016	-244.048095703125	1308.977661132812	283.3860168457031	-350.2712097167969	1259.8818359375	52.93873977661133	-328.0662231445312	1519.387329101562	122.2636032104492	-260.541748046875	1426.408203125	265.7173767089844	-423.1305847167969	1379.132446289062	74.17391967773438	-236.4118957519531	1486.97900390625	55.09496688842773	-147.60546875	1486.374755859375	112.4160232543945	-90.56401062011719	1373.20703125	41.69863891601562	-58.34333419799805	1166.020751953125	20.26972579956055	-135.0543670654297	1147.95263671875	-18.30571746826172	-48.82923126220703	949.1458129882812	150.8707885742188	4.293004989624023	924.7716064453125	89.04345703125	-31.38848686218262	1061.616577148438	39.74702835083008	-32.75617980957031	756.3138427734375	178.1520080566406	11.95592308044434	839.9759521484375	118.0277099609375	-10.04066371917725	852.6639404296875	181.4723052978516	-457.1469116210938	1466.030029296875	240.2303314208984	-524.9544067382812	1400.71875	247.2796173095703	-578.013916015625	1123.587890625	239.7768402099609	-511.1304626464844	1113.88330078125	172.5441436767578	-490.6609191894531	909.8519287109375	351.8766479492188	-571.099365234375	896.682861328125	328.9201965332031	-581.2469482421875	1055.61962890625	269.4377746582031	-485.3751220703125	717.6365966796875	371.7394409179688	-493.5501098632812	791.7623901367188	400.1650390625	-559.1426391601562	791.2869262695312	370.3788452148438	-351.9386901855469	1683.524658203125	219.9240875244141	-166.7776489257812	1678.398681640625	351.9742736816406	-253.9363250732422	1674.21142578125	400.9918518066406	-213.2943115234375	1683.689453125	193.8559417724609	-123.9455642700195	982.4969482421875	75.84636688232422	-463.2054748535156	1011.778442382812	212.5552062988281	-394.3184204101562	1050.785034179688	286.8738098144531	-130.5089874267578	1028.50439453125	188.3103637695312	-108.6928634643555	499.2845458984375	166.3849182128906	-100.8843536376953	644.485107421875	141.9758605957031	-271.4965515136719	166.6320495605469	-151.6661987304688	-178.6048278808594	342.50244140625	12.17657089233398	-239.2123260498047	53.25676345825195	28.34757614135742	-304.0862121582031	80.90981292724609	-7.463542938232422	-208.4843292236328	90.38661193847656	-69.68790435791016	-338.0337524414062	208.8220977783203	-167.8464508056641	-393.6394958496094	528.683349609375	298.8673706054688	-443.1819152832031	793.4371337890625	291.6324157714844	-403.4364929199219	26.14091110229492	235.9082183837891	-374.3442687988281	406.0427551269531	305.53076171875	-251.4998168945312	56.26149749755859	385.2125244140625	-245.0936737060547	56.49225234985352	315.1409301757812	-360.118408203125	31.98761749267578	341.1095275878906	-386.08837890625	28.38758850097656	152.1264343261719	
602	6.01	-403.8328247070312	1048.265991210938	85.15596008300781	-292.0544738769531	1049.280639648438	40.29767990112305	-339.4291076660156	1132.415771484375	53.62485122680664	-243.068603515625	1309.13037109375	287.1416931152344	-352.0321960449219	1260.596435546875	57.75972747802734	-329.2275085449219	1519.90380859375	127.6136245727539	-259.84423828125	1426.609375	269.9937744140625	-424.8616638183594	1379.738037109375	80.44858551025391	-238.4542846679688	1487.636352539062	59.23931884765625	-148.9033660888672	1487.015991210938	115.3958511352539	-92.64859008789062	1374.031494140625	43.81507110595703	-60.42008972167969	1166.9462890625	21.93602561950684	-137.5627746582031	1148.592529296875	-15.77011203765869	-48.86485290527344	951.7335815429688	154.5776977539062	3.657752752304077	926.6600341796875	92.43232727050781	-32.95839691162109	1062.861206054688	41.96564865112305	-30.91647529602051	759.6189575195312	185.1143035888672	12.32293224334717	842.459716796875	122.7729873657227	-8.865796089172363	856.1687622070312	186.2877044677734	-456.7405700683594	1466.261474609375	247.0867614746094	-524.3949584960938	1400.984252929688	254.9774627685547	-577.7996215820312	1123.870727539062	248.3384704589844	-512.0072631835938	1114.109252929688	180.0628204345703	-488.4253540039062	910.5433959960938	359.6830749511719	-569.174072265625	897.139404296875	337.9226379394531	-580.4742431640625	1055.921997070312	278.1990356445312	-482.4356384277344	718.37548828125	379.9618530273438	-490.3582153320312	792.534423828125	408.2949523925781	-556.3637084960938	791.9010009765625	379.5085754394531	-351.5890197753906	1683.97216796875	226.0119323730469	-164.9603576660156	1677.996704101562	355.9607238769531	-251.560791015625	1673.865966796875	405.9394226074219	-213.2296905517578	1683.898193359375	198.4134674072266	-124.853759765625	983.3557739257812	77.85166168212891	-463.4610900878906	1012.041259765625	217.6731414794922	-393.1402893066406	1050.899536132812	291.6708068847656	-130.60302734375	1029.186645507812	190.3069610595703	-105.3459854125977	500.5599975585938	171.4295196533203	-98.76366424560547	645.7501220703125	145.4673309326172	-273.0694885253906	164.1263732910156	-140.27001953125	-177.7092132568359	341.9916076660156	20.01197052001953	-236.9483032226562	54.16780853271484	40.77649688720703	-302.7791137695312	80.75456237792969	6.08797025680542	-208.5464782714844	89.43914031982422	-58.25522613525391	-340.1247863769531	205.8203277587891	-155.7740020751953	-393.9778747558594	528.427978515625	300.8319396972656	-442.6647644042969	793.400146484375	295.7166137695312	-403.755126953125	26.02334976196289	235.9349060058594	-374.7579650878906	405.7760925292969	306.8701477050781	-251.7964477539062	57.1291389465332	384.9862365722656	-245.3765106201172	57.37205123901367	314.8177490234375	-360.0335693359375	31.98660469055176	341.0611877441406	-386.4636535644531	28.37201309204102	152.1632843017578	
